<svg width="35" height="36" viewBox="0 0 35 36" fill="none" xmlns="http://www.w3.org/2000/svg">
<path d="M31.25 0.5H3.75C2.75544 0.5 1.80161 0.895088 1.09835 1.59835C0.395088 2.30161 0 3.25544 0 4.25L0 31.75C0 32.7446 0.395088 33.6984 1.09835 34.4016C1.80161 35.1049 2.75544 35.5 3.75 35.5H14.4727V23.6008H9.55078V18H14.4727V13.7312C14.4727 8.87578 17.3633 6.19375 21.7906 6.19375C23.9109 6.19375 26.1281 6.57188 26.1281 6.57188V11.3375H23.6852C21.2781 11.3375 20.5273 12.8312 20.5273 14.3633V18H25.9008L25.0414 23.6008H20.5273V35.5H31.25C32.2446 35.5 33.1984 35.1049 33.9016 34.4016C34.6049 33.6984 35 32.7446 35 31.75V4.25C35 3.25544 34.6049 2.30161 33.9016 1.59835C33.1984 0.895088 32.2446 0.5 31.25 0.5Z" fill="white"/>
</svg>
