<svg width="35" height="25" viewBox="0 0 35 25" fill="none" xmlns="http://www.w3.org/2000/svg">
<path d="M33.3992 4.53979C33.0175 3.10273 31.893 1.97094 30.4652 1.58685C27.8773 0.888916 17.5 0.888916 17.5 0.888916C17.5 0.888916 7.12274 0.888916 4.53474 1.58685C3.10697 1.971 1.98247 3.10273 1.60082 4.53979C0.907379 7.14456 0.907379 12.5792 0.907379 12.5792C0.907379 12.5792 0.907379 18.0138 1.60082 20.6185C1.98247 22.0556 3.10697 23.1402 4.53474 23.5243C7.12274 24.2223 17.5 24.2223 17.5 24.2223C17.5 24.2223 27.8772 24.2223 30.4652 23.5243C31.893 23.1402 33.0175 22.0556 33.3992 20.6185C34.0926 18.0138 34.0926 12.5792 34.0926 12.5792C34.0926 12.5792 34.0926 7.14456 33.3992 4.53979ZM14.106 17.5134V7.64495L22.7794 12.5793L14.106 17.5134Z" fill="white"/>
</svg>
